<svg width="16.527649" height="16.527649" viewBox="0 0 16.5276 16.5276" fill="none" xmlns="http://www.w3.org/2000/svg" xmlns:xlink="http://www.w3.org/1999/xlink">
	<desc>
			Created with Pixso.
	</desc>
	<defs/>
	<g opacity="0.500000">
		<path id="Vector" d="M7.16595 0.0204773C3.21448 0.0204773 0 3.23492 0 7.18643C0 11.138 3.21448 14.3524 7.16595 14.3524C8.37396 14.3524 9.56146 14.0658 10.5647 13.513C10.645 13.6097 10.7341 13.6988 10.8309 13.7791L12.8783 15.8266C13.0673 16.0393 13.2979 16.2111 13.5557 16.3315C13.8136 16.4519 14.0934 16.5184 14.3778 16.5267C14.6623 16.5351 14.9455 16.4853 15.21 16.3802C15.4745 16.2752 15.7147 16.1172 15.916 15.916C16.1172 15.7148 16.2752 15.4745 16.3802 15.21C16.4853 14.9455 16.5351 14.6623 16.5267 14.3778C16.5184 14.0934 16.452 13.8136 16.3315 13.5557C16.2111 13.2979 16.0393 13.0673 15.8265 12.8783L13.7791 10.8308C13.6794 10.7311 13.5696 10.6419 13.4515 10.5647C14.0043 9.56146 14.3524 8.39441 14.3524 7.16599C14.3524 3.21445 11.1379 0 7.18646 0L7.16595 0.0204773ZM7.16595 2.0679C10.0119 2.0679 12.2845 4.34052 12.2845 7.18643C12.2845 8.53775 11.7932 9.78668 10.9332 10.708C10.9127 10.7285 10.8923 10.749 10.8718 10.7694C10.7751 10.8498 10.686 10.9389 10.6057 11.0356C9.70477 11.8546 8.47632 12.3255 7.14551 12.3255C4.29956 12.3255 2.02692 10.0528 2.02692 7.20691C2.02692 4.36099 4.29956 2.08838 7.14551 2.08838L7.16595 2.0679Z" fill="#000000" fill-opacity="1.000000" fill-rule="nonzero"/>
	</g>
</svg>
